<?xml version="1.0" encoding="UTF-8" standalone="no"?>
<!-- Generator: Adobe Illustrator 24.3.0, SVG Export Plug-In . SVG Version: 6.00 Build 0)  -->

<svg
   version="1.1"
   id="Layer_1"
   x="0px"
   y="0px"
   viewBox="0 0 223000 44678"
   xml:space="preserve"
   width="223000"
   height="44678"
   xmlns="http://www.w3.org/2000/svg"
   xmlns:svg="http://www.w3.org/2000/svg"><defs
   id="defs93" />
<g
   id="watermark_1_"
   transform="translate(-13500,-102661)">
	<g
   id="g70">
		<g
   id="watermark"
   style="opacity:0.61">
			<g
   id="g35">
				<g
   id="g24">
					<g
   id="g5">
						<g
   id="g1">
							<polygon
   style="fill:#ffffff"
   points="202.938,461.172 206.846,470.347 210.81,461.172 213.765,461.172 208.204,474.017 205.268,474.017 199.726,461.172 "
   id="polygon1" />
						</g>
						<g
   id="g2">
							<path
   style="fill:#ffffff"
   d="m 223.507,469.741 h -7.469 c 0.275,1.23 1.321,1.982 2.826,1.982 1.046,0 1.798,-0.312 2.477,-0.954 l 1.523,1.651 c -0.917,1.046 -2.294,1.597 -4.074,1.597 -3.413,0 -5.634,-2.147 -5.634,-5.083 0,-2.954 2.257,-5.083 5.267,-5.083 2.899,0 5.138,1.945 5.138,5.12 0.001,0.22 -0.035,0.532 -0.054,0.77 m -7.505,-1.67 h 4.863 c -0.202,-1.248 -1.138,-2.055 -2.422,-2.055 -1.304,0 -2.239,0.789 -2.441,2.055"
   id="path1" />
						</g>
						<g
   id="g3">
							<path
   style="fill:#ffffff"
   d="m 224.735,468.934 c 0,-2.973 2.294,-5.083 5.505,-5.083 2.074,0 3.707,0.899 4.423,2.514 l -2.22,1.193 c -0.532,-0.936 -1.321,-1.358 -2.221,-1.358 -1.45,0 -2.587,1.009 -2.587,2.734 0,1.725 1.138,2.734 2.587,2.734 0.899,0 1.688,-0.404 2.221,-1.358 l 2.22,1.211 c -0.716,1.578 -2.349,2.495 -4.423,2.495 -3.211,10e-4 -5.505,-2.109 -5.505,-5.082"
   id="path2" />
						</g>
						<g
   id="g4">
							<path
   style="fill:#ffffff"
   d="m 242.828,473.393 c -0.587,0.422 -1.45,0.624 -2.331,0.624 -2.33,0 -3.688,-1.193 -3.688,-3.542 v -4.055 h -1.523 v -2.202 h 1.523 v -2.404 h 2.863 v 2.404 h 2.459 v 2.202 h -2.459 v 4.019 c 0,0.844 0.458,1.303 1.229,1.303 0.422,0 0.844,-0.128 1.156,-0.367 z"
   id="path3" />
						</g>
					</g>
					<g
   id="g6">
						<path
   style="fill:#ffffff"
   d="m 262.474,463.997 v 2.643 c -0.238,-0.018 -0.422,-0.037 -0.642,-0.037 -1.578,0 -2.624,0.862 -2.624,2.753 v 4.661 h -2.863 v -9.873 h 2.734 v 1.303 c 0.697,-0.954 1.872,-1.45 3.395,-1.45"
   id="path5" />
					</g>
					<g
   id="g7">
						<path
   style="fill:#ffffff"
   d="m 263.299,472.53 1.009,-2.239 c 1.083,0.789 2.697,1.339 4.239,1.339 1.762,0 2.477,-0.587 2.477,-1.376 0,-2.404 -7.469,-0.752 -7.469,-5.524 0,-2.184 1.762,-4 5.413,-4 1.615,0 3.267,0.385 4.459,1.138 l -0.918,2.257 c -1.193,-0.679 -2.422,-1.009 -3.56,-1.009 -1.761,0 -2.44,0.66 -2.44,1.468 0,2.367 7.468,0.734 7.468,5.45 0,2.147 -1.78,3.982 -5.45,3.982 -2.035,10e-4 -4.09,-0.605 -5.228,-1.486"
   id="path6" />
					</g>
					<g
   id="g8">
						<path
   style="fill:#ffffff"
   d="m 285.428,469.741 h -7.469 c 0.275,1.23 1.321,1.982 2.826,1.982 1.046,0 1.798,-0.312 2.477,-0.954 l 1.523,1.651 c -0.918,1.046 -2.294,1.597 -4.074,1.597 -3.413,0 -5.634,-2.147 -5.634,-5.083 0,-2.954 2.257,-5.083 5.267,-5.083 2.9,0 5.138,1.945 5.138,5.12 0.002,0.22 -0.035,0.532 -0.054,0.77 m -7.505,-1.67 h 4.863 c -0.202,-1.248 -1.138,-2.055 -2.422,-2.055 -1.303,0 -2.239,0.789 -2.441,2.055"
   id="path7" />
					</g>
					<g
   id="g9">
						<path
   style="fill:#ffffff"
   d="m 297.007,469.741 h -7.469 c 0.275,1.23 1.321,1.982 2.826,1.982 1.046,0 1.798,-0.312 2.477,-0.954 l 1.523,1.651 c -0.918,1.046 -2.294,1.597 -4.074,1.597 -3.413,0 -5.634,-2.147 -5.634,-5.083 0,-2.954 2.257,-5.083 5.267,-5.083 2.899,0 5.138,1.945 5.138,5.12 0.001,0.22 -0.036,0.532 -0.054,0.77 m -7.506,-1.67 h 4.863 c -0.202,-1.248 -1.138,-2.055 -2.422,-2.055 -1.303,0 -2.239,0.789 -2.441,2.055"
   id="path8" />
					</g>
					<g
   id="g10">
						<polygon
   style="fill:#ffffff"
   points="298.969,460.401 301.831,460.401 301.831,468.108 306.016,464.144 309.429,464.144 305.318,468.328 309.796,474.017 306.327,474.017 303.208,470.145 301.831,471.503 301.831,474.017 298.969,474.017 "
   id="polygon9" />
					</g>
					<g
   id="g11">
						<path
   style="fill:#ffffff"
   d="m 256.601,475.359 v 0 l -2.86,-2.86 c -0.435,0.508 -0.953,0.943 -1.534,1.284 -0.092,0.069 -0.186,0.136 -0.283,0.199 l 3.027,3.027 c 0.456,0.456 1.195,0.456 1.65,0 0.456,-0.455 0.456,-1.194 0,-1.65"
   id="path10" />
					</g>
					<g
   id="g12">
						<path
   style="fill:#ffffff"
   d="m 249.984,463.244 c 0.221,-0.173 0.495,-0.281 0.797,-0.281 0.042,0 0.083,0.002 0.124,0.006 -0.214,-0.156 -0.478,-0.249 -0.764,-0.249 -0.395,0 -0.744,0.18 -0.981,0.458 -0.051,0 -0.1,0.006 -0.151,0.008 0.039,-0.077 0.064,-0.162 0.064,-0.255 0,-0.234 -0.143,-0.434 -0.346,-0.519 0.087,0.126 0.138,0.279 0.138,0.445 0,0.122 -0.031,0.237 -0.081,0.341 -2.811,0.201 -5.03,2.539 -5.03,5.4 0,2.993 2.426,5.42 5.42,5.42 2.993,0 5.42,-2.426 5.42,-5.42 0.001,-2.719 -2.001,-4.963 -4.61,-5.354 m -2.001,1.412 c 0.435,0 0.844,0.112 1.199,0.309 0.374,-0.245 0.82,-0.387 1.299,-0.387 0.711,0 1.348,0.312 1.784,0.806 -0.435,-0.379 -1.004,-0.61 -1.627,-0.61 -0.449,0 -0.87,0.12 -1.234,0.329 -0.079,0.046 -0.156,0.096 -0.229,0.15 -0.065,-0.048 -0.133,-0.093 -0.204,-0.134 -0.369,-0.219 -0.8,-0.344 -1.26,-0.344 -0.3,0 -0.588,0.054 -0.854,0.152 0.339,-0.173 0.721,-0.271 1.126,-0.271 m 3.789,4.442 c 0.115,0.305 0.181,0.634 0.181,0.979 0,1.534 -1.244,2.777 -2.778,2.777 -1.534,0 -2.777,-1.243 -2.777,-2.777 0,-0.345 0.066,-0.674 0.181,-0.979 -0.62,-0.382 -1.035,-1.064 -1.035,-1.846 0,-1.197 0.971,-2.168 2.168,-2.168 0.565,0 1.078,0.218 1.463,0.572 0.386,-0.354 0.899,-0.572 1.464,-0.572 1.197,0 2.168,0.971 2.168,2.168 0,0.782 -0.415,1.464 -1.035,1.846"
   id="path11" />
					</g>
					<g
   id="g13">
						<path
   style="fill:#ffffff"
   d="m 251.666,467.061 c 0,0.497 -0.404,0.901 -0.901,0.901 -0.497,0 -0.901,-0.404 -0.901,-0.901 0,-0.497 0.404,-0.901 0.901,-0.901 0.101,0 0.197,0.017 0.287,0.047 -0.03,0.062 -0.045,0.132 -0.045,0.204 0,0.273 0.221,0.494 0.494,0.494 0.05,0 0.099,-0.008 0.146,-0.022 0.013,0.058 0.019,0.117 0.019,0.178"
   id="path12" />
					</g>
					<g
   id="g14">
						<path
   style="fill:#ffffff"
   d="m 248.255,467.061 c 0,0.376 -0.305,0.681 -0.681,0.681 -0.376,0 -0.681,-0.305 -0.681,-0.681 0,-0.376 0.305,-0.681 0.681,-0.681 0.076,0 0.149,0.013 0.217,0.035 -0.023,0.047 -0.034,0.1 -0.034,0.155 0,0.206 0.167,0.374 0.374,0.374 0.038,0 0.075,-0.006 0.11,-0.017 0.009,0.043 0.014,0.088 0.014,0.134"
   id="path13" />
					</g>
					<g
   id="g23">
						<g
   id="g18">
							<g
   id="g15">
								<rect
   x="242.908"
   y="467.82999"
   style="fill:#ffffff"
   width="0.616"
   height="0.616"
   id="rect14" />
							</g>
							<g
   id="g16">
								<rect
   x="254.827"
   y="467.82999"
   style="fill:#ffffff"
   width="0.616"
   height="0.616"
   id="rect15" />
							</g>
							<g
   id="g17">
								<path
   style="fill:#ffffff"
   d="m 255.205,468.082 h -0.14 c 0,-3.248 -2.642,-5.89 -5.89,-5.89 -3.248,0 -5.89,2.642 -5.89,5.89 h -0.14 c 0,-1.611 0.627,-3.125 1.766,-4.264 1.139,-1.139 2.653,-1.766 4.264,-1.766 1.611,0 3.125,0.627 4.264,1.766 1.139,1.139 1.766,2.653 1.766,4.264"
   id="path16" />
							</g>
						</g>
						<g
   id="g19">
							<rect
   x="248.868"
   y="461.814"
   style="fill:#ffffff"
   width="0.616"
   height="0.616"
   id="rect18" />
						</g>
						<g
   id="g20">
							<rect
   x="244.95"
   y="462.052"
   style="fill:#ffffff"
   width="8.4499998"
   height="0.14"
   id="rect19" />
						</g>
						<g
   id="g21">
							<path
   style="fill:#ffffff"
   d="m 245.174,462.15 c 0,0.108 -0.088,0.196 -0.196,0.196 -0.108,0 -0.196,-0.088 -0.196,-0.196 0,-0.108 0.088,-0.196 0.196,-0.196 0.108,0 0.196,0.088 0.196,0.196"
   id="path20" />
						</g>
						<g
   id="g22">
							<path
   style="fill:#ffffff"
   d="m 253.596,462.15 c 0,0.108 -0.088,0.196 -0.196,0.196 -0.108,0 -0.196,-0.088 -0.196,-0.196 0,-0.108 0.088,-0.196 0.196,-0.196 0.109,0 0.196,0.088 0.196,0.196"
   id="path21" />
						</g>
					</g>
				</g>
				<g
   id="g25">
					<path
   style="fill:#ffffff"
   d="m 314.356,473.409 c 0,1.559 -2.364,1.559 -2.364,0 10e-4,-1.558 2.364,-1.558 2.364,0 z"
   id="path24" />
				</g>
				<g
   id="g34">
					<g
   id="g29">
						<g
   id="g26">
							<path
   style="fill:#ffffff"
   d="m 161.739,466.549 1.772,6.088 1.855,-6.088 h 2.215 l -2.823,8.14 h -2.33 l -0.837,-2.396 -0.722,-2.708 -0.722,2.708 -0.837,2.396 h -2.33 l -2.839,-8.14 h 2.231 l 1.855,6.088 1.756,-6.088 z"
   id="path25" />
						</g>
						<g
   id="g27">
							<path
   style="fill:#ffffff"
   d="m 176.713,466.549 1.772,6.088 1.855,-6.088 h 2.215 l -2.823,8.14 h -2.33 l -0.837,-2.396 -0.722,-2.708 -0.722,2.708 -0.837,2.396 h -2.33 l -2.839,-8.14 h 2.231 l 1.855,6.088 1.756,-6.088 z"
   id="path26" />
						</g>
						<g
   id="g28">
							<path
   style="fill:#ffffff"
   d="m 191.687,466.549 1.772,6.088 1.855,-6.088 h 2.215 l -2.823,8.14 h -2.33 l -0.837,-2.396 -0.722,-2.708 -0.722,2.708 -0.837,2.396 h -2.33 l -2.839,-8.14 h 2.231 l 1.855,6.088 1.756,-6.088 z"
   id="path27" />
						</g>
					</g>
					<g
   id="g30">
						<path
   style="fill:#ffffff"
   d="m 200.908,473.52 c 0,1.559 -2.364,1.559 -2.364,0 10e-4,-1.558 2.364,-1.558 2.364,0 z"
   id="path29" />
					</g>
					<g
   id="g31">
						<path
   style="fill:#ffffff"
   d="m 322.71,473.409 c -0.935,0.919 -1.919,1.28 -3.117,1.28 -2.346,0 -4.3,-1.411 -4.3,-4.282 0,-2.871 1.953,-4.284 4.3,-4.284 1.149,0 2.035,0.329 2.921,1.199 l -1.264,1.329 c -0.476,-0.428 -1.066,-0.64 -1.623,-0.64 -1.346,0 -2.33,0.985 -2.33,2.396 0,1.542 1.05,2.362 2.297,2.362 0.64,0 1.28,-0.18 1.772,-0.672 z"
   id="path30" />
					</g>
					<g
   id="g32">
						<path
   style="fill:#ffffff"
   d="m 331.805,470.472 c 0,2.33 -1.591,4.217 -4.217,4.217 -2.626,0 -4.201,-1.887 -4.201,-4.217 0,-2.314 1.609,-4.217 4.185,-4.217 2.577,0 4.233,1.903 4.233,4.217 z m -6.416,0 c 0,1.231 0.739,2.38 2.199,2.38 1.46,0 2.199,-1.149 2.199,-2.38 0,-1.215 -0.854,-2.396 -2.199,-2.396 -1.444,10e-4 -2.199,1.182 -2.199,2.396 z"
   id="path31" />
					</g>
					<g
   id="g33">
						<path
   style="fill:#ffffff"
   d="m 338.572,474.689 v -4.332 c 0,-1.068 -0.559,-2.035 -1.658,-2.035 -1.082,0 -1.722,0.967 -1.722,2.035 v 4.332 h -2.003 v -8.107 h 1.855 l 0.148,0.985 c 0.426,-0.82 1.362,-1.116 2.133,-1.116 0.969,0 1.937,0.394 2.396,1.51 0.723,-1.149 1.658,-1.478 2.708,-1.478 2.297,0 3.43,1.412 3.43,3.84 v 4.365 h -2.003 v -4.365 c 0,-1.066 -0.442,-1.97 -1.526,-1.97 -1.082,0 -1.756,0.935 -1.756,2.003 v 4.332 h -2.002 z"
   id="path32" />
					</g>
				</g>
			</g>
		</g>
		<g
   style="opacity:0.61"
   id="g68">
			<g
   id="g50">
				<g
   id="g36">
					<path
   style="fill:#ffffff"
   d="m 345.988,431.299 c -0.006,-1.224 -0.959,-2.121 -2.189,-2.14 -0.924,-0.014 -0.832,0.12 -0.834,-0.867 -0.003,-1.097 -0.007,-2.194 0.003,-3.292 0.003,-0.379 -0.112,-0.691 -0.362,-0.976 -2.342,-2.668 -4.678,-5.342 -7.019,-8.011 -0.12,-0.137 -0.275,-0.244 -0.414,-0.366 -6.214,0 -12.427,0 -18.641,0 -0.794,0.293 -1.14,0.868 -1.138,1.709 0.01,3.748 0.004,7.496 0.004,11.243 0,0.556 -0.003,0.589 -0.55,0.551 -1.497,-0.102 -2.516,0.986 -2.497,2.492 0.044,3.476 0.013,6.953 0.014,10.429 10e-4,1.58 0.867,2.443 2.45,2.449 0.582,0.002 0.582,0.002 0.582,0.6 0,2.219 -10e-4,4.438 0.001,6.657 10e-4,1.192 0.58,1.771 1.768,1.771 8.013,10e-4 16.027,10e-4 24.04,0 1.168,0 1.755,-0.583 1.757,-1.745 0.002,-2.256 0,-4.512 10e-4,-6.768 0,-0.512 0.002,-0.511 0.52,-0.515 0.271,-0.002 0.541,0.008 0.809,-0.058 0.996,-0.246 1.69,-1.044 1.694,-2.069 0.016,-3.697 0.018,-7.396 10e-4,-11.094 z m -28.451,-14.137 c 5.337,0 10.674,0 16.01,0 0.548,0 0.554,0.007 0.554,0.561 10e-4,2.243 -10e-4,4.486 10e-4,6.73 0.001,0.811 0.249,1.059 1.06,1.059 1.91,10e-4 3.821,0 5.731,10e-4 0.458,0 0.479,0.021 0.481,0.483 0.003,0.887 0.002,1.775 0,2.662 -0.001,0.477 -0.024,0.498 -0.504,0.499 -3.895,0.001 -7.79,0 -11.684,0 -3.882,0 -7.765,0 -11.647,0 -0.55,0 -0.552,-10e-4 -0.552,-0.561 -0.001,-3.624 -0.001,-7.247 0,-10.871 0,-0.559 0.004,-0.563 0.55,-0.563 z m 23.285,34.417 c -3.883,10e-4 -7.766,0 -11.65,0 -3.871,0 -7.742,0 -11.613,0 -0.572,0 -0.574,-0.002 -0.574,-0.579 -0.001,-1.997 -0.001,-3.994 10e-4,-5.991 0,-0.464 0.023,-0.486 0.478,-0.487 7.803,-10e-4 15.607,-10e-4 23.41,0 0.478,0 0.499,0.02 0.499,0.503 0.002,1.997 0.001,3.994 0,5.991 0.002,0.558 -0.003,0.563 -0.551,0.563 z"
   id="path35" />
				</g>
				<g
   id="g49">
					<g
   id="g37">
						<rect
   x="327.418"
   y="417.05301"
   style="fill:#ffffff"
   width="1.757"
   height="1.054"
   id="rect36" />
					</g>
					<g
   id="g38">
						<rect
   x="325.66199"
   y="418.10699"
   style="fill:#ffffff"
   width="1.757"
   height="1.054"
   id="rect37" />
					</g>
					<g
   id="g39">
						<rect
   x="327.418"
   y="419.16101"
   style="fill:#ffffff"
   width="1.757"
   height="1.054"
   id="rect38" />
					</g>
					<g
   id="g40">
						<rect
   x="325.66199"
   y="420.215"
   style="fill:#ffffff"
   width="1.757"
   height="1.054"
   id="rect39" />
					</g>
					<g
   id="g41">
						<rect
   x="327.418"
   y="421.26901"
   style="fill:#ffffff"
   width="1.757"
   height="1.054"
   id="rect40" />
					</g>
					<g
   id="g42">
						<rect
   x="325.66199"
   y="422.323"
   style="fill:#ffffff"
   width="1.757"
   height="1.054"
   id="rect41" />
					</g>
					<g
   id="g43">
						<rect
   x="327.418"
   y="423.37799"
   style="fill:#ffffff"
   width="1.757"
   height="1.054"
   id="rect42" />
					</g>
					<g
   id="g44">
						<rect
   x="325.66199"
   y="424.43201"
   style="fill:#ffffff"
   width="1.757"
   height="1.054"
   id="rect43" />
					</g>
					<g
   id="g45">
						<rect
   x="327.418"
   y="425.48599"
   style="fill:#ffffff"
   width="1.757"
   height="1.054"
   id="rect44" />
					</g>
					<g
   id="g46">
						<rect
   x="325.66199"
   y="426.54001"
   style="fill:#ffffff"
   width="1.757"
   height="1.054"
   id="rect45" />
					</g>
					<g
   id="g47">
						<rect
   x="327.418"
   y="427.59399"
   style="fill:#ffffff"
   width="1.757"
   height="1.054"
   id="rect46" />
					</g>
					<g
   id="g48">
						<rect
   x="325.66199"
   y="428.64801"
   style="fill:#ffffff"
   width="1.757"
   height="1.054"
   id="rect47" />
					</g>
				</g>
			</g>
			<g
   id="g51">
				<path
   style="fill:#ffffff"
   d="m 187.637,431.299 c -0.006,-1.224 -0.959,-2.121 -2.189,-2.14 -0.924,-0.014 -0.832,0.12 -0.834,-0.867 -0.003,-1.097 -0.007,-2.194 0.003,-3.292 0.003,-0.379 -0.112,-0.691 -0.362,-0.976 -2.342,-2.668 -4.678,-5.342 -7.019,-8.011 -0.12,-0.137 -0.275,-0.244 -0.414,-0.366 -6.214,0 -12.427,0 -18.641,0 -0.794,0.293 -1.14,0.868 -1.138,1.709 0.01,3.748 0.004,7.496 0.004,11.243 0,0.556 -0.003,0.589 -0.55,0.551 -1.497,-0.102 -2.516,0.986 -2.497,2.492 0.044,3.476 0.013,6.953 0.014,10.429 10e-4,1.58 0.867,2.443 2.45,2.449 0.582,0.002 0.582,0.002 0.582,0.6 0,2.219 -0.001,4.438 0.001,6.657 0.001,1.192 0.58,1.771 1.768,1.771 8.013,10e-4 16.027,10e-4 24.04,0 1.168,0 1.755,-0.583 1.757,-1.745 0.002,-2.256 0,-4.512 0.001,-6.768 0,-0.512 0.002,-0.511 0.52,-0.515 0.271,-0.002 0.541,0.008 0.809,-0.058 0.996,-0.246 1.69,-1.044 1.694,-2.069 0.016,-3.697 0.019,-7.396 0.001,-11.094 z m -28.45,-14.137 c 5.337,0 10.674,0 16.01,0 0.548,0 0.554,0.007 0.554,0.561 0.001,2.243 -0.001,4.486 0.001,6.73 10e-4,0.811 0.249,1.059 1.06,1.059 1.91,10e-4 3.821,0 5.731,10e-4 0.458,0 0.479,0.021 0.481,0.483 0.003,0.887 0.002,1.775 0,2.662 -0.001,0.477 -0.024,0.498 -0.504,0.499 -3.895,0.001 -7.79,0 -11.684,0 -3.882,0 -7.765,0 -11.647,0 -0.55,0 -0.552,-10e-4 -0.552,-0.561 -0.001,-3.624 -0.001,-7.247 0,-10.871 -0.001,-0.559 0.003,-0.563 0.55,-0.563 z m 23.285,34.417 c -3.883,10e-4 -7.766,0 -11.65,0 -3.871,0 -7.742,0 -11.613,0 -0.572,0 -0.574,-0.002 -0.574,-0.579 -0.001,-1.997 -0.001,-3.994 0.001,-5.991 0,-0.464 0.023,-0.486 0.478,-0.487 7.803,-10e-4 15.607,-10e-4 23.41,0 0.478,0 0.499,0.02 0.499,0.503 0.002,1.997 0.001,3.994 0,5.991 0.001,0.558 -0.004,0.563 -0.551,0.563 z"
   id="path50" />
			</g>
			<g
   id="g53">
				<path
   style="fill:#ffffff"
   d="m 159.779,440.669 v -7.897 h 2.779 c 0.375,0 0.726,0.061 1.053,0.182 0.327,0.121 0.612,0.292 0.855,0.513 0.242,0.221 0.434,0.483 0.573,0.789 0.14,0.305 0.21,0.642 0.21,1.009 0,0.375 -0.07,0.715 -0.21,1.02 -0.14,0.305 -0.331,0.568 -0.573,0.789 -0.243,0.221 -0.528,0.392 -0.855,0.513 -0.327,0.121 -0.678,0.182 -1.053,0.182 h -1.29 v 2.901 h -1.489 z m 2.801,-4.313 c 0.39,0 0.684,-0.111 0.882,-0.331 0.199,-0.22 0.298,-0.474 0.298,-0.761 0,-0.14 -0.024,-0.276 -0.072,-0.408 -0.048,-0.132 -0.121,-0.248 -0.221,-0.347 -0.099,-0.099 -0.223,-0.178 -0.37,-0.237 -0.147,-0.059 -0.32,-0.089 -0.518,-0.089 h -1.312 v 2.173 z"
   id="path51" />
				<path
   style="fill:#ffffff"
   d="m 166.308,432.771 h 1.731 l 3.177,5.294 h 0.088 l -0.088,-1.522 v -3.772 h 1.478 v 7.897 h -1.566 l -3.353,-5.592 h -0.088 l 0.088,1.522 v 4.07 h -1.467 z"
   id="path52" />
				<path
   style="fill:#ffffff"
   d="m 177.922,436.334 h 3.872 c 0.022,0.089 0.04,0.195 0.055,0.32 0.014,0.125 0.022,0.25 0.022,0.375 0,0.507 -0.077,0.985 -0.231,1.434 -0.154,0.449 -0.397,0.849 -0.728,1.202 -0.353,0.375 -0.776,0.666 -1.268,0.871 -0.493,0.206 -1.055,0.309 -1.688,0.309 -0.574,0 -1.114,-0.103 -1.622,-0.309 -0.507,-0.206 -0.948,-0.492 -1.323,-0.86 -0.375,-0.367 -0.673,-0.803 -0.894,-1.307 -0.221,-0.504 -0.331,-1.053 -0.331,-1.649 0,-0.595 0.11,-1.145 0.331,-1.649 0.221,-0.504 0.518,-0.939 0.894,-1.307 0.375,-0.367 0.816,-0.654 1.323,-0.86 0.507,-0.206 1.048,-0.309 1.622,-0.309 0.64,0 1.211,0.11 1.715,0.331 0.504,0.221 0.935,0.526 1.296,0.915 l -1.025,1.004 c -0.258,-0.272 -0.544,-0.48 -0.861,-0.623 -0.316,-0.143 -0.695,-0.215 -1.136,-0.215 -0.361,0 -0.703,0.065 -1.026,0.193 -0.324,0.129 -0.607,0.311 -0.85,0.546 -0.242,0.235 -0.436,0.52 -0.579,0.855 -0.143,0.335 -0.215,0.708 -0.215,1.119 0,0.412 0.072,0.785 0.215,1.12 0.143,0.335 0.338,0.62 0.584,0.855 0.246,0.235 0.531,0.418 0.855,0.546 0.323,0.129 0.669,0.193 1.037,0.193 0.419,0 0.773,-0.061 1.064,-0.182 0.29,-0.121 0.538,-0.278 0.744,-0.469 0.148,-0.132 0.275,-0.3 0.381,-0.502 0.106,-0.202 0.189,-0.428 0.248,-0.678 h -2.482 v -1.269 z"
   id="path53" />
			</g>
			<g
   id="g54">
				<path
   style="fill:#ffffff"
   d="m 224.019,431.299 c -0.006,-1.224 -0.959,-2.121 -2.189,-2.14 -0.924,-0.014 -0.832,0.12 -0.834,-0.867 -0.003,-1.097 -0.007,-2.194 0.003,-3.292 0.003,-0.379 -0.112,-0.691 -0.362,-0.976 -2.342,-2.668 -4.678,-5.342 -7.019,-8.011 -0.12,-0.137 -0.275,-0.244 -0.414,-0.366 -6.214,0 -12.427,0 -18.641,0 -0.794,0.293 -1.14,0.868 -1.138,1.709 0.01,3.748 0.004,7.496 0.004,11.243 0,0.556 -0.003,0.589 -0.55,0.551 -1.497,-0.102 -2.516,0.986 -2.497,2.492 0.044,3.476 0.013,6.953 0.014,10.429 0.001,1.58 0.867,2.443 2.45,2.449 0.582,0.002 0.582,0.002 0.582,0.6 0,2.219 -0.001,4.438 0.001,6.657 0.001,1.192 0.58,1.771 1.768,1.771 8.013,10e-4 16.027,10e-4 24.04,0 1.168,0 1.755,-0.583 1.757,-1.745 0.002,-2.256 0,-4.512 0.001,-6.768 0,-0.512 0.002,-0.511 0.52,-0.515 0.271,-0.002 0.541,0.008 0.809,-0.058 0.997,-0.246 1.69,-1.044 1.694,-2.069 0.016,-3.697 0.018,-7.396 0.001,-11.094 z m -28.451,-14.137 c 5.337,0 10.674,0 16.01,0 0.548,0 0.554,0.007 0.554,0.561 0.001,2.243 -0.001,4.486 0.001,6.73 10e-4,0.811 0.249,1.059 1.06,1.059 1.91,10e-4 3.821,0 5.731,10e-4 0.458,0 0.479,0.021 0.481,0.483 0.003,0.887 0.002,1.775 0,2.662 -0.001,0.477 -0.024,0.498 -0.504,0.499 -3.895,0.001 -7.79,0 -11.684,0 -3.882,0 -7.765,0 -11.647,0 -0.55,0 -0.552,-10e-4 -0.552,-0.561 -0.001,-3.624 -0.001,-7.247 0,-10.871 0,-0.559 0.004,-0.563 0.55,-0.563 z m 23.286,34.417 c -3.883,10e-4 -7.766,0 -11.65,0 -3.871,0 -7.742,0 -11.613,0 -0.572,0 -0.574,-0.002 -0.574,-0.579 -0.001,-1.997 -0.001,-3.994 0.001,-5.991 0,-0.464 0.023,-0.486 0.478,-0.487 7.803,-10e-4 15.607,-10e-4 23.41,0 0.478,0 0.499,0.02 0.499,0.503 0.002,1.997 0.001,3.994 0,5.991 0.001,0.558 -0.004,0.563 -0.551,0.563 z"
   id="path54" />
			</g>
			<g
   id="g56">
				<path
   style="fill:#ffffff"
   d="m 205.111,432.771 h 1.699 l 2.967,7.897 h -1.644 l -0.651,-1.886 h -3.044 l -0.651,1.886 h -1.643 z m 1.886,4.644 -0.706,-1.974 -0.287,-0.96 h -0.088 l -0.287,0.96 -0.706,1.974 z"
   id="path55" />
				<path
   style="fill:#ffffff"
   d="m 211.331,434.536 c -0.125,0 -0.245,-0.024 -0.359,-0.072 -0.114,-0.048 -0.213,-0.114 -0.298,-0.199 -0.084,-0.084 -0.151,-0.182 -0.198,-0.292 -0.048,-0.11 -0.072,-0.232 -0.072,-0.364 0,-0.132 0.024,-0.254 0.072,-0.364 0.048,-0.11 0.114,-0.208 0.198,-0.292 0.084,-0.084 0.184,-0.151 0.298,-0.198 0.114,-0.048 0.233,-0.072 0.359,-0.072 0.257,0 0.478,0.09 0.662,0.27 0.184,0.181 0.276,0.399 0.276,0.656 0,0.257 -0.092,0.476 -0.276,0.656 -0.184,0.181 -0.404,0.271 -0.662,0.271 z m -0.716,6.133 v -5.404 h 1.445 v 5.404 z"
   id="path56" />
			</g>
			<g
   id="g57">
				<path
   style="fill:#ffffff"
   d="m 261.044,431.299 c -0.006,-1.224 -0.959,-2.121 -2.189,-2.14 -0.924,-0.014 -0.832,0.12 -0.834,-0.867 -0.003,-1.097 -0.007,-2.194 0.003,-3.292 0.003,-0.379 -0.112,-0.691 -0.362,-0.976 -2.342,-2.668 -4.678,-5.342 -7.019,-8.011 -0.12,-0.137 -0.275,-0.244 -0.414,-0.366 -6.214,0 -12.427,0 -18.641,0 -0.794,0.293 -1.14,0.868 -1.138,1.709 0.01,3.748 0.004,7.496 0.004,11.243 0,0.556 -0.003,0.589 -0.55,0.551 -1.497,-0.102 -2.516,0.986 -2.497,2.492 0.044,3.476 0.013,6.953 0.014,10.429 0.001,1.58 0.867,2.443 2.45,2.449 0.582,0.002 0.582,0.002 0.582,0.6 0,2.219 -0.001,4.438 0.001,6.657 0.001,1.192 0.58,1.771 1.768,1.771 8.013,10e-4 16.027,10e-4 24.04,0 1.168,0 1.755,-0.583 1.757,-1.745 0.002,-2.256 0,-4.512 10e-4,-6.768 0,-0.512 0.002,-0.511 0.52,-0.515 0.271,-0.002 0.541,0.008 0.809,-0.058 0.996,-0.246 1.69,-1.044 1.694,-2.069 0.016,-3.697 0.018,-7.396 10e-4,-11.094 z m -28.451,-14.137 c 5.337,0 10.674,0 16.01,0 0.548,0 0.554,0.007 0.554,0.561 10e-4,2.243 -0.001,4.486 10e-4,6.73 0.001,0.811 0.249,1.059 1.06,1.059 1.91,10e-4 3.821,0 5.731,10e-4 0.458,0 0.479,0.021 0.481,0.483 0.003,0.887 0.002,1.775 0,2.662 -0.001,0.477 -0.024,0.498 -0.504,0.499 -3.895,0.001 -7.79,0 -11.684,0 -3.882,0 -7.765,0 -11.647,0 -0.55,0 -0.552,-10e-4 -0.552,-0.561 -0.001,-3.624 -0.001,-7.247 0,-10.871 -0.001,-0.559 0.004,-0.563 0.55,-0.563 z m 23.285,34.417 c -3.883,10e-4 -7.766,0 -11.65,0 -3.871,0 -7.742,0 -11.613,0 -0.572,0 -0.574,-0.002 -0.574,-0.579 -0.001,-1.997 -0.001,-3.994 0.001,-5.991 0,-0.464 0.023,-0.486 0.478,-0.487 7.803,-10e-4 15.607,-10e-4 23.41,0 0.478,0 0.499,0.02 0.499,0.503 0.002,1.997 0.001,3.994 0,5.991 0.002,0.558 -0.003,0.563 -0.551,0.563 z"
   id="path57" />
			</g>
			<g
   id="g60">
				<path
   style="fill:#ffffff"
   d="m 236.361,440.845 c -0.338,0 -0.662,-0.048 -0.971,-0.143 -0.309,-0.095 -0.592,-0.239 -0.849,-0.43 -0.257,-0.191 -0.481,-0.425 -0.673,-0.7 -0.191,-0.276 -0.342,-0.597 -0.452,-0.965 l 1.401,-0.551 c 0.103,0.397 0.283,0.726 0.54,0.987 0.257,0.261 0.596,0.392 1.015,0.392 0.154,0 0.303,-0.02 0.447,-0.061 0.143,-0.04 0.272,-0.099 0.386,-0.176 0.114,-0.077 0.204,-0.175 0.27,-0.292 0.066,-0.118 0.099,-0.254 0.099,-0.408 0,-0.147 -0.026,-0.279 -0.077,-0.397 -0.051,-0.117 -0.138,-0.227 -0.259,-0.331 -0.121,-0.103 -0.28,-0.202 -0.475,-0.298 -0.195,-0.095 -0.435,-0.195 -0.722,-0.298 l -0.485,-0.176 c -0.213,-0.073 -0.429,-0.173 -0.645,-0.298 -0.217,-0.125 -0.413,-0.276 -0.59,-0.452 -0.177,-0.176 -0.322,-0.384 -0.436,-0.623 -0.114,-0.239 -0.171,-0.509 -0.171,-0.81 0,-0.309 0.06,-0.597 0.182,-0.866 0.121,-0.268 0.294,-0.503 0.518,-0.706 0.224,-0.202 0.492,-0.36 0.805,-0.474 0.313,-0.114 0.66,-0.171 1.042,-0.171 0.397,0 0.74,0.053 1.031,0.16 0.291,0.107 0.537,0.243 0.739,0.408 0.202,0.165 0.366,0.348 0.491,0.546 0.125,0.199 0.217,0.386 0.276,0.563 l -1.312,0.551 c -0.074,-0.221 -0.208,-0.419 -0.402,-0.596 -0.195,-0.176 -0.462,-0.265 -0.8,-0.265 -0.324,0 -0.592,0.075 -0.805,0.226 -0.213,0.151 -0.32,0.348 -0.32,0.59 0,0.235 0.103,0.436 0.309,0.601 0.206,0.165 0.533,0.325 0.982,0.48 l 0.497,0.165 c 0.316,0.111 0.605,0.237 0.866,0.381 0.261,0.143 0.485,0.314 0.673,0.513 0.187,0.199 0.331,0.425 0.43,0.678 0.1,0.254 0.149,0.546 0.149,0.877 0,0.412 -0.083,0.767 -0.248,1.064 -0.165,0.298 -0.377,0.542 -0.634,0.734 -0.258,0.191 -0.548,0.335 -0.872,0.43 -0.325,0.093 -0.641,0.141 -0.95,0.141 z"
   id="path58" />
				<path
   style="fill:#ffffff"
   d="m 239.516,432.771 h 1.61 l 1.633,4.754 0.287,1.015 h 0.088 l 0.309,-1.015 1.699,-4.754 h 1.61 l -2.879,7.897 h -1.566 z"
   id="path59" />
				<path
   style="fill:#ffffff"
   d="m 251.097,436.334 h 3.871 c 0.022,0.089 0.04,0.195 0.055,0.32 0.015,0.125 0.023,0.25 0.023,0.375 0,0.507 -0.078,0.985 -0.232,1.434 -0.154,0.449 -0.397,0.849 -0.728,1.202 -0.353,0.375 -0.775,0.666 -1.268,0.871 -0.493,0.206 -1.055,0.309 -1.688,0.309 -0.574,0 -1.114,-0.103 -1.621,-0.309 -0.507,-0.206 -0.949,-0.492 -1.324,-0.86 -0.375,-0.367 -0.673,-0.803 -0.894,-1.307 -0.22,-0.504 -0.331,-1.053 -0.331,-1.649 0,-0.595 0.11,-1.145 0.331,-1.649 0.221,-0.504 0.518,-0.939 0.894,-1.307 0.375,-0.367 0.816,-0.654 1.324,-0.86 0.507,-0.206 1.047,-0.309 1.621,-0.309 0.64,0 1.211,0.11 1.715,0.331 0.504,0.221 0.936,0.526 1.296,0.915 l -1.026,1.004 c -0.257,-0.272 -0.544,-0.48 -0.861,-0.623 -0.316,-0.143 -0.694,-0.215 -1.136,-0.215 -0.36,0 -0.702,0.065 -1.026,0.193 -0.323,0.129 -0.607,0.311 -0.849,0.546 -0.243,0.235 -0.436,0.52 -0.579,0.855 -0.143,0.335 -0.215,0.708 -0.215,1.119 0,0.412 0.072,0.785 0.215,1.12 0.143,0.335 0.338,0.62 0.585,0.855 0.246,0.235 0.531,0.418 0.854,0.546 0.324,0.129 0.669,0.193 1.037,0.193 0.419,0 0.774,-0.061 1.064,-0.182 0.29,-0.121 0.539,-0.278 0.745,-0.469 0.147,-0.132 0.274,-0.3 0.38,-0.502 0.107,-0.202 0.189,-0.428 0.248,-0.678 h -2.482 v -1.269 z"
   id="path60" />
			</g>
			<g
   id="g61">
				<path
   style="fill:#ffffff"
   d="m 297.3,431.299 c -0.006,-1.224 -0.959,-2.121 -2.189,-2.14 -0.924,-0.014 -0.832,0.12 -0.834,-0.867 -0.003,-1.097 -0.007,-2.194 0.003,-3.292 0.003,-0.379 -0.112,-0.691 -0.362,-0.976 -2.342,-2.668 -4.678,-5.342 -7.019,-8.011 -0.12,-0.137 -0.275,-0.244 -0.414,-0.366 -6.214,0 -12.427,0 -18.641,0 -0.794,0.293 -1.14,0.868 -1.138,1.709 0.01,3.748 0.004,7.496 0.004,11.243 0,0.556 -0.003,0.589 -0.55,0.551 -1.497,-0.102 -2.516,0.986 -2.497,2.492 0.044,3.476 0.013,6.953 0.014,10.429 10e-4,1.58 0.867,2.443 2.45,2.449 0.582,0.002 0.582,0.002 0.582,0.6 0,2.219 -10e-4,4.438 10e-4,6.657 0.001,1.192 0.58,1.771 1.768,1.771 8.013,10e-4 16.027,10e-4 24.04,0 1.168,0 1.755,-0.583 1.757,-1.745 0.002,-2.256 0,-4.512 0.001,-6.768 0,-0.512 0.002,-0.511 0.52,-0.515 0.271,-0.002 0.541,0.008 0.809,-0.058 0.996,-0.246 1.69,-1.044 1.694,-2.069 0.016,-3.697 0.019,-7.396 0.001,-11.094 z m -28.45,-14.137 c 5.337,0 10.674,0 16.01,0 0.548,0 0.554,0.007 0.554,0.561 0.001,2.243 -10e-4,4.486 0.001,6.73 10e-4,0.811 0.249,1.059 1.06,1.059 1.91,10e-4 3.821,0 5.731,10e-4 0.458,0 0.479,0.021 0.481,0.483 0.003,0.887 0.002,1.775 0,2.662 -0.001,0.477 -0.024,0.498 -0.504,0.499 -3.895,0.001 -7.79,0 -11.684,0 -3.882,0 -7.765,0 -11.647,0 -0.55,0 -0.552,-10e-4 -0.552,-0.561 -0.001,-3.624 -0.001,-7.247 0,-10.871 -0.001,-0.559 0.003,-0.563 0.55,-0.563 z m 23.285,34.417 c -3.883,10e-4 -7.766,0 -11.65,0 -3.871,0 -7.742,0 -11.613,0 -0.572,0 -0.574,-0.002 -0.574,-0.579 -10e-4,-1.997 -10e-4,-3.994 10e-4,-5.991 0,-0.464 0.023,-0.486 0.478,-0.487 7.803,-10e-4 15.607,-10e-4 23.41,0 0.478,0 0.499,0.02 0.499,0.503 0.001,1.997 0.001,3.994 0,5.991 0.001,0.558 -0.004,0.563 -0.551,0.563 z"
   id="path61" />
			</g>
			<g
   id="g64">
				<path
   style="fill:#ffffff"
   d="m 272.966,434.183 v 1.831 h 3.165 v 1.412 h -3.165 v 1.831 h 3.518 v 1.412 h -5.007 v -7.897 h 5.007 v 1.412 h -3.518 z"
   id="path62" />
				<path
   style="fill:#ffffff"
   d="m 277.852,440.669 v -7.897 h 2.779 c 0.375,0 0.726,0.061 1.053,0.182 0.327,0.121 0.612,0.292 0.855,0.513 0.243,0.221 0.434,0.483 0.574,0.789 0.14,0.305 0.209,0.642 0.209,1.009 0,0.375 -0.07,0.715 -0.209,1.02 -0.14,0.305 -0.331,0.568 -0.574,0.789 -0.243,0.221 -0.528,0.392 -0.855,0.513 -0.327,0.121 -0.678,0.182 -1.053,0.182 h -1.29 v 2.901 h -1.489 z m 2.801,-4.313 c 0.389,0 0.684,-0.111 0.882,-0.331 0.199,-0.22 0.298,-0.474 0.298,-0.761 0,-0.14 -0.024,-0.276 -0.072,-0.408 -0.048,-0.132 -0.121,-0.248 -0.221,-0.347 -0.099,-0.099 -0.222,-0.178 -0.37,-0.237 -0.147,-0.059 -0.32,-0.089 -0.518,-0.089 h -1.312 v 2.173 z"
   id="path63" />
				<path
   style="fill:#ffffff"
   d="m 286.797,440.845 c -0.338,0 -0.662,-0.048 -0.971,-0.143 -0.309,-0.095 -0.592,-0.239 -0.849,-0.43 -0.257,-0.191 -0.482,-0.425 -0.673,-0.7 -0.191,-0.276 -0.342,-0.597 -0.452,-0.965 l 1.401,-0.551 c 0.103,0.397 0.283,0.726 0.541,0.987 0.257,0.261 0.595,0.392 1.015,0.392 0.154,0 0.303,-0.02 0.447,-0.061 0.143,-0.04 0.272,-0.099 0.386,-0.176 0.114,-0.077 0.204,-0.175 0.27,-0.292 0.066,-0.118 0.1,-0.254 0.1,-0.408 0,-0.147 -0.026,-0.279 -0.077,-0.397 -0.051,-0.117 -0.138,-0.227 -0.259,-0.331 -0.121,-0.103 -0.279,-0.202 -0.474,-0.298 -0.195,-0.095 -0.436,-0.195 -0.723,-0.298 l -0.485,-0.176 c -0.213,-0.073 -0.428,-0.173 -0.645,-0.298 -0.217,-0.125 -0.414,-0.276 -0.59,-0.452 -0.176,-0.176 -0.322,-0.384 -0.436,-0.623 -0.114,-0.239 -0.171,-0.509 -0.171,-0.81 0,-0.309 0.061,-0.597 0.182,-0.866 0.121,-0.268 0.294,-0.503 0.518,-0.706 0.224,-0.202 0.493,-0.36 0.805,-0.474 0.312,-0.114 0.66,-0.171 1.042,-0.171 0.397,0 0.741,0.053 1.031,0.16 0.29,0.107 0.537,0.243 0.739,0.408 0.202,0.165 0.365,0.348 0.491,0.546 0.125,0.199 0.217,0.386 0.276,0.563 l -1.312,0.551 c -0.074,-0.221 -0.208,-0.419 -0.403,-0.596 -0.195,-0.176 -0.462,-0.265 -0.799,-0.265 -0.324,0 -0.592,0.075 -0.805,0.226 -0.213,0.151 -0.32,0.348 -0.32,0.59 0,0.235 0.103,0.436 0.309,0.601 0.206,0.165 0.533,0.325 0.982,0.48 l 0.496,0.165 c 0.316,0.111 0.605,0.237 0.866,0.381 0.261,0.143 0.485,0.314 0.673,0.513 0.187,0.199 0.331,0.425 0.43,0.678 0.099,0.254 0.149,0.546 0.149,0.877 0,0.412 -0.083,0.767 -0.248,1.064 -0.165,0.298 -0.377,0.542 -0.634,0.734 -0.258,0.191 -0.548,0.335 -0.872,0.43 -0.326,0.093 -0.643,0.141 -0.951,0.141 z"
   id="path64" />
			</g>
			<g
   id="g67">
				<path
   style="fill:#ffffff"
   d="m 321.394,439.168 4.004,-4.985 h -3.827 v -1.412 h 5.559 v 1.5 l -3.96,4.985 h 4.004 v 1.412 h -5.779 v -1.5 z"
   id="path65" />
				<path
   style="fill:#ffffff"
   d="m 328.409,432.771 h 1.489 v 7.897 h -1.489 z"
   id="path66" />
				<path
   style="fill:#ffffff"
   d="m 331.486,440.669 v -7.897 h 2.779 c 0.375,0 0.726,0.061 1.053,0.182 0.327,0.121 0.612,0.292 0.855,0.513 0.243,0.221 0.434,0.483 0.574,0.789 0.14,0.305 0.209,0.642 0.209,1.009 0,0.375 -0.07,0.715 -0.209,1.02 -0.14,0.305 -0.331,0.568 -0.574,0.789 -0.243,0.221 -0.528,0.392 -0.855,0.513 -0.327,0.121 -0.678,0.182 -1.053,0.182 h -1.29 v 2.901 h -1.489 z m 2.802,-4.313 c 0.389,0 0.684,-0.111 0.882,-0.331 0.199,-0.22 0.298,-0.474 0.298,-0.761 0,-0.14 -0.024,-0.276 -0.072,-0.408 -0.048,-0.132 -0.121,-0.248 -0.221,-0.347 -0.099,-0.099 -0.222,-0.178 -0.37,-0.237 -0.147,-0.059 -0.32,-0.089 -0.518,-0.089 h -1.312 v 2.173 z"
   id="path67" />
			</g>
		</g>
		<g
   style="opacity:0.61"
   id="g69">
			<path
   style="fill:#ffffff"
   d="m 300.133,433.27 h 9.067 v 2.242 h -9.067 z m 0,3.866 h 9.067 v 2.243 h -9.067 z"
   id="path68" />
		</g>
	</g>
	<g
   style="opacity:0.61"
   id="g91">
		<path
   style="fill:#ffffff"
   d="m 156.756,478.878 h 1.607 c 1.263,0 2.114,0.812 2.114,1.974 0,1.161 -0.851,1.973 -2.114,1.973 h -1.607 z m 1.584,3.586 c 1.049,0 1.725,-0.665 1.725,-1.612 0,-0.947 -0.677,-1.613 -1.725,-1.613 h -1.167 v 3.225 z"
   id="path70" />
		<path
   style="fill:#ffffff"
   d="m 165.139,480.851 c 0,-1.15 0.879,-2.007 2.075,-2.007 1.184,0 2.069,0.851 2.069,2.007 0,1.156 -0.885,2.007 -2.069,2.007 -1.195,0 -2.075,-0.856 -2.075,-2.007 z m 3.727,0 c 0,-0.942 -0.705,-1.635 -1.652,-1.635 -0.953,0 -1.663,0.693 -1.663,1.635 0,0.941 0.71,1.635 1.663,1.635 0.948,0 1.652,-0.693 1.652,-1.635 z"
   id="path71" />
		<path
   style="fill:#ffffff"
   d="m 179.596,478.878 -1.331,3.947 h -0.44 l -1.156,-3.366 -1.161,3.366 h -0.434 l -1.331,-3.947 h 0.429 l 1.139,3.394 1.178,-3.394 h 0.389 l 1.161,3.411 1.156,-3.411 z"
   id="path72" />
		<path
   style="fill:#ffffff"
   d="m 187.731,478.878 v 3.947 h -0.344 l -2.537,-3.202 v 3.202 h -0.417 v -3.947 h 0.344 l 2.543,3.203 v -3.203 z"
   id="path73" />
		<path
   style="fill:#ffffff"
   d="m 193.093,478.878 h 0.417 v 3.586 h 2.21 v 0.361 h -2.627 z"
   id="path74" />
		<path
   style="fill:#ffffff"
   d="m 200.061,480.851 c 0,-1.15 0.879,-2.007 2.075,-2.007 1.184,0 2.069,0.851 2.069,2.007 0,1.156 -0.885,2.007 -2.069,2.007 -1.195,0 -2.075,-0.856 -2.075,-2.007 z m 3.727,0 c 0,-0.942 -0.705,-1.635 -1.652,-1.635 -0.953,0 -1.663,0.693 -1.663,1.635 0,0.941 0.71,1.635 1.663,1.635 0.947,0 1.652,-0.693 1.652,-1.635 z"
   id="path75" />
		<path
   style="fill:#ffffff"
   d="m 211.636,481.77 h -2.199 l -0.474,1.054 h -0.434 l 1.804,-3.947 h 0.412 l 1.804,3.947 h -0.44 z m -0.152,-0.338 -0.947,-2.12 -0.947,2.12 z"
   id="path76" />
		<path
   style="fill:#ffffff"
   d="m 217.28,478.878 h 1.607 c 1.263,0 2.114,0.812 2.114,1.974 0,1.161 -0.851,1.973 -2.114,1.973 h -1.607 z m 1.584,3.586 c 1.049,0 1.725,-0.665 1.725,-1.612 0,-0.947 -0.677,-1.613 -1.725,-1.613 h -1.167 v 3.225 z"
   id="path77" />
		<path
   style="fill:#ffffff"
   d="m 234.041,481.77 h -2.199 l -0.474,1.054 h -0.434 l 1.804,-3.947 h 0.412 l 1.804,3.947 h -0.44 z m -0.152,-0.338 -0.947,-2.12 -0.947,2.12 z"
   id="path78" />
		<path
   style="fill:#ffffff"
   d="m 239.685,478.878 h 0.417 v 3.586 h 2.21 v 0.361 h -2.627 z"
   id="path79" />
		<path
   style="fill:#ffffff"
   d="m 247.082,478.878 h 0.417 v 3.586 h 2.21 v 0.361 h -2.627 z"
   id="path80" />
		<path
   style="fill:#ffffff"
   d="m 260.449,479.239 v 1.551 h 2.041 v 0.361 h -2.041 v 1.675 h -0.417 v -3.947 h 2.706 v 0.361 h -2.289 z"
   id="path81" />
		<path
   style="fill:#ffffff"
   d="m 267.678,478.878 h 0.417 v 3.947 h -0.417 z"
   id="path82" />
		<path
   style="fill:#ffffff"
   d="m 273.456,478.878 h 0.417 v 3.586 h 2.21 v 0.361 h -2.627 z"
   id="path83" />
		<path
   style="fill:#ffffff"
   d="m 283.644,482.464 v 0.361 h -2.791 v -3.947 h 2.706 v 0.361 h -2.289 v 1.404 h 2.041 v 0.355 h -2.041 v 1.466 z"
   id="path84" />
		<path
   style="fill:#ffffff"
   d="m 294.672,479.239 v 1.551 h 2.041 v 0.361 h -2.041 v 1.675 h -0.417 v -3.947 h 2.706 v 0.361 h -2.289 z"
   id="path85" />
		<path
   style="fill:#ffffff"
   d="m 301.5,480.851 c 0,-1.15 0.879,-2.007 2.075,-2.007 1.184,0 2.069,0.851 2.069,2.007 0,1.156 -0.885,2.007 -2.069,2.007 -1.196,0 -2.075,-0.856 -2.075,-2.007 z m 3.726,0 c 0,-0.942 -0.705,-1.635 -1.652,-1.635 -0.953,0 -1.663,0.693 -1.663,1.635 0,0.941 0.71,1.635 1.663,1.635 0.948,0 1.652,-0.693 1.652,-1.635 z"
   id="path86" />
		<path
   style="fill:#ffffff"
   d="m 313.351,482.825 -0.902,-1.269 c -0.102,0.011 -0.203,0.017 -0.316,0.017 h -1.06 v 1.252 h -0.417 v -3.947 h 1.477 c 1.004,0 1.613,0.507 1.613,1.353 0,0.62 -0.327,1.054 -0.902,1.24 l 0.964,1.353 h -0.457 z m -0.023,-2.594 c 0,-0.632 -0.417,-0.992 -1.207,-0.992 h -1.048 v 1.979 h 1.048 c 0.79,0 1.207,-0.367 1.207,-0.987 z"
   id="path87" />
		<path
   style="fill:#ffffff"
   d="m 322.907,478.878 v 3.947 h -0.4 v -3.158 l -1.551,2.656 h -0.197 l -1.551,-2.639 v 3.14 h -0.4 v -3.947 h 0.344 l 1.714,2.926 1.697,-2.926 h 0.344 z"
   id="path88" />
		<path
   style="fill:#ffffff"
   d="m 330.744,481.77 h -2.199 l -0.473,1.054 h -0.434 l 1.804,-3.947 h 0.411 l 1.804,3.947 h -0.44 z m -0.152,-0.338 -0.947,-2.12 -0.947,2.12 z"
   id="path89" />
		<path
   style="fill:#ffffff"
   d="m 336.957,479.239 h -1.387 v -0.361 h 3.192 v 0.361 h -1.387 v 3.586 h -0.417 v -3.586 z"
   id="path90" />
		<path
   style="fill:#ffffff"
   d="m 343.063,482.346 0.164,-0.321 c 0.282,0.276 0.784,0.479 1.302,0.479 0.739,0 1.06,-0.31 1.06,-0.699 0,-1.083 -2.43,-0.417 -2.43,-1.877 0,-0.581 0.451,-1.083 1.455,-1.083 0.446,0 0.908,0.13 1.224,0.35 l -0.141,0.333 c -0.338,-0.22 -0.733,-0.327 -1.083,-0.327 -0.722,0 -1.043,0.321 -1.043,0.716 0,1.083 2.43,0.429 2.43,1.866 0,0.581 -0.462,1.077 -1.472,1.077 -0.592,-0.002 -1.173,-0.21 -1.466,-0.514 z"
   id="path91" />
	</g>
</g>
<g
   id="g92"
   transform="translate(-13500,-102661)">
</g>
<g
   id="g93"
   transform="translate(-13500,-102661)">
	<path
   style="fill:#223b50"
   d="m 97.967,208.258 c 3.988,0 7.221,3.234 7.221,7.221 0,3.987 -3.233,7.22 -7.221,7.22 H 52.448 c -2.727,0 -6.038,1.109 -8.539,2.942 -1.445,1.058 -2.469,2.214 -2.469,3.191 v 14.021 h 56.095 c 3.987,0 7.22,3.233 7.22,7.221 0,3.987 -3.233,7.22 -7.22,7.22 H 41.44 v 12.807 c 0,1.383 0.943,3.016 2.323,4.394 1.395,1.392 3.047,2.345 4.437,2.345 h 49.841 c 3.987,0 7.22,3.233 7.22,7.22 0,3.989 -3.233,7.222 -7.22,7.222 H 48.2 c -5.334,0 -10.678,-2.671 -14.59,-6.576 C 29.683,280.785 27,275.438 27,270.102 v -41.269 c 0,-6.127 3.479,-11.214 8.392,-14.812 4.9,-3.589 11.515,-5.762 17.057,-5.762 h 45.518 z m 86.712,0 c 3.987,0 7.22,3.234 7.22,7.221 0,3.987 -3.233,7.22 -7.22,7.22 h -44.764 c -0.164,0 -0.183,-0.005 -0.205,-0.004 -1.484,0.16 -3.2,1.477 -4.655,3.27 -1.576,1.942 -2.617,4.225 -2.617,6.13 l 0.003,0.378 c 0.312,2.895 1.58,5.836 3.503,7.952 1.328,1.461 2.948,2.429 4.652,2.429 h 32.168 c 6.993,0 12.374,2.807 16.284,6.964 4.464,4.748 6.784,11.252 7.248,17.063 0.04,0.507 0.06,0.971 0.06,1.394 0,5.028 -2.211,10.496 -5.579,14.712 -3.565,4.464 -8.605,7.795 -14.038,8.239 v 10e-4 c -0.446,0.037 -0.863,0.055 -1.251,0.055 h -50.55 c -3.988,0 -7.22,-3.233 -7.22,-7.222 0,-3.987 3.232,-7.22 7.22,-7.22 h 50.55 l 0.068,0.002 v 0.003 l 0.028,-0.003 c 1.205,-0.097 2.654,-1.246 3.913,-2.824 1.46,-1.828 2.42,-3.98 2.42,-5.743 l -0.005,-0.266 c -0.236,-2.952 -1.314,-6.151 -3.354,-8.319 -1.344,-1.429 -3.25,-2.395 -5.793,-2.395 h -32.168 c -6.138,0 -11.39,-2.856 -15.313,-7.168 -3.949,-4.342 -6.54,-10.306 -7.169,-16.131 -0.079,-0.729 -0.118,-1.361 -0.118,-1.901 0,-5.219 2.342,-10.843 5.889,-15.212 3.667,-4.517 8.82,-7.922 14.301,-8.515 0.668,-0.071 1.247,-0.11 1.728,-0.11 z m 80.56,1.778 c 3.005,-2.601 7.552,-2.272 10.153,0.733 2.601,3.005 2.272,7.552 -0.733,10.153 l -33.553,29.145 34.432,29.965 c 3.005,2.617 3.322,7.177 0.705,10.182 -2.617,3.005 -7.175,3.32 -10.182,0.704 l -40.678,-35.401 0.011,-0.012 c -0.252,-0.22 -0.491,-0.459 -0.716,-0.721 l -0.102,-0.121 v 31.165 c 0,3.987 -3.233,7.22 -7.22,7.22 -3.988,0 -7.22,-3.233 -7.22,-7.22 v -71.485 c 0,-3.987 3.232,-7.22 7.22,-7.22 3.987,0 7.22,3.233 7.22,7.22 v 31.14 c 0.25,-0.301 0.529,-0.587 0.834,-0.852 z m 44.367,-1.778 h 37.276 c 5.624,0 10.74,2.305 14.453,6.015 l 0.029,0.028 c 3.709,3.711 6.014,8.828 6.014,14.453 v 42.033 c 0,5.624 -2.305,10.74 -6.014,14.452 l -0.029,0.029 c -3.712,3.709 -8.829,6.014 -14.453,6.014 h -37.276 c -5.644,0 -10.769,-2.305 -14.48,-6.014 -3.711,-3.712 -6.016,-8.838 -6.016,-14.482 v -42.033 c 0,-5.644 2.305,-10.769 6.016,-14.481 3.711,-3.709 8.836,-6.014 14.48,-6.014 z m 37.276,14.441 h -37.276 c -1.656,0 -3.17,0.685 -4.27,1.784 -1.102,1.102 -1.784,2.614 -1.784,4.271 v 42.033 c 0,1.656 0.682,3.17 1.784,4.27 1.1,1.1 2.614,1.784 4.27,1.784 h 37.276 c 1.669,0 3.185,-0.678 4.285,-1.768 1.091,-1.1 1.768,-2.617 1.768,-4.285 v -42.033 c 0,-1.668 -0.678,-3.185 -1.768,-4.285 -1.1,-1.092 -2.617,-1.771 -4.285,-1.771 z"
   id="path92" />
	<path
   style="clip-rule:evenodd;fill:#aac12c;fill-rule:evenodd"
   d="m 428.407,205.322 c 24.627,0 44.593,20.003 44.593,44.677 0,24.676 -19.965,44.679 -44.593,44.679 -24.629,0 -44.592,-20.002 -44.592,-44.679 0,-24.674 19.964,-44.677 44.592,-44.677 z m -6.198,12.765 c 0,-3.988 3.231,-7.22 7.22,-7.22 3.987,0 7.22,3.232 7.22,7.22 v 21.996 l 20.82,-6.894 c 3.783,-1.246 7.864,0.812 9.11,4.597 1.245,3.784 -0.813,7.864 -4.597,9.11 l -20.932,6.93 11.237,15.514 c 2.336,3.225 1.616,7.733 -1.607,10.07 -3.224,2.335 -7.732,1.616 -10.069,-1.607 L 429.3,262.19 417.142,278.257 c -2.398,3.177 -6.92,3.809 -10.098,1.411 -3.177,-2.399 -3.809,-6.921 -1.411,-10.098 l 11.83,-15.633 -19.054,-5.821 c -3.8,-1.152 -5.946,-5.17 -4.794,-8.969 1.152,-3.8 5.169,-5.947 8.969,-4.795 l 19.626,5.996 v -22.261 z"
   id="path93" />
</g>
</svg>
