<?xml version="1.0" encoding="utf-8"?>
<!-- Generator: Adobe Illustrator 25.3.0, SVG Export Plug-In . SVG Version: 6.00 Build 0)  -->
<svg version="1.1" id="Layer_2" xmlns="http://www.w3.org/2000/svg" xmlns:xlink="http://www.w3.org/1999/xlink" x="0px" y="0px"
	 viewBox="0 0 1000 500" style="enable-background:new 0 0 1000 500;" xml:space="preserve">
<style type="text/css">
	.st0{fill:#444C54;}
	.st1{fill:#A2BE3E;}
</style>
<g>
	<g>
		<path class="st0" d="M318.7,264.4l-0.1-26.1c-0.1-30,9.7-47.3,44.5-47.5l30.5-0.1c34.8-0.2,44.8,17.1,44.9,47.1l0.1,19.4
			c0,3.5-1.9,5.4-5.4,5.4l-86,0.4l0,4.3c0.1,14.9,4,18.3,16.9,18.3l68.9-0.3c3.5,0,5.4,1.9,5.4,5.4l0.1,15.8c0,3.5-1.9,5.4-5.4,5.4
			l-69.6,0.3C328.9,312.3,318.9,295.3,318.7,264.4z M410,240.9l0-5.6c-0.1-14.7-3.8-18.1-16.9-18.1l-29.2,0.1
			c-13.2,0.1-16.8,3.5-16.8,18.2l0,5.6L410,240.9z"/>
		<path class="st0" d="M457.6,306.3l-0.1-15.8c0-3.5,1.9-5.4,5.4-5.4l59.4-0.3c11.9-0.1,16.4-2.7,16.4-10.2c0-7.6-3.3-9.5-14.7-10.7
			l-33.3-3.5c-27-2.9-35.9-13.2-36-35.7c-0.1-23.5,13.7-34.4,43.3-34.5l57.9-0.3c3.5,0,5.4,1.9,5.4,5.4l0.1,15.8
			c0,3.5-1.9,5.4-5.4,5.4l-57.2,0.3c-10.8,0-15.8,2.5-15.7,10.7c0,7.1,3.1,9.3,13,10.3l32.6,3.5c30.3,3.5,38.7,14.5,38.8,36.3
			c0.1,24.4-13.5,33.8-45.2,33.9l-59.2,0.3C459.6,311.7,457.6,309.8,457.6,306.3z"/>
		<path class="st0" d="M586.1,305.8L585.4,145c0-3.5,1.9-5.4,5.4-5.4l17.7-0.1c3.5,0,5.4,1.9,5.4,5.4l0.4,93.6v-0.1l45.5-45.7
			c1.7-2.2,3.9-3.3,6.7-3.3l21.8-0.1c4.5,0,5.8,3,3.1,6.7l-52.6,54l52.8,54c2.8,3.7,1.5,6.7-3,6.7l-21.6,0.1c-2.8,0-5-1.1-6.7-3.2
			l-45.9-44.8v0.1l0.2,42.8c0,3.5-1.9,5.4-5.4,5.4l-17.7,0.1C588.1,311.1,586.1,309.2,586.1,305.8z"/>
		<path class="st0" d="M700.7,263.7l-0.1-26.1c-0.1-30,9.7-47.4,44.5-47.5l35.9-0.2c34.8-0.2,44.8,17.1,44.9,47.1l0.1,26.1
			c0.1,30.9-9.7,48-44.5,48.2l-35.9,0.2C710.9,311.6,700.9,294.6,700.7,263.7z M780.7,284.7c13-0.1,16.8-3.5,16.8-18.4l-0.1-31.8
			c-0.1-14.7-3.8-18.1-16.9-18.1l-34.6,0.2c-13.2,0.1-16.8,3.5-16.8,18.2l0.1,31.8c0.1,14.9,4,18.3,16.9,18.3L780.7,284.7z"/>
	</g>
	<path class="st1" d="M270.5,229.2c-1.7-5.1-4-13.5-15.2-9.8l-40,13.2l-0.2-43.6c-0.1-11.7-8.9-9.1-14.4-9.1c-5.5,0-15-2.5-14.9,9.2
		l0.2,43.6l-40.9-11.8c-11.3-3.6-13.2,5-14.9,10.1c-1.7,5.2-5.4,13.9,6,17.5l40.9,11.8l-25.5,34.2c-6.9,9.5,0.8,14.6,5.2,17.7
		c4.5,3.2,11.7,8.7,18.6-0.8l25.6-34.1l25.6,33.6c7,9.4,13.8,3.7,18.3,0.5c4.4-3.2,12.4-8.2,5.4-17.6L224.5,260l39.9-13.1
		C275.7,243.2,272.2,234.3,270.5,229.2 M287.5,252.1c0.2,47.4-38.4,86-86.4,86.2c-47.9,0.2-86.9-38-87.2-85.4
		c-0.2-47.4,38.4-85.9,86.3-86.2C248.3,166.5,287.3,204.7,287.5,252.1"/>
</g>
</svg>
