<svg xmlns="http://www.w3.org/2000/svg" xml:space="preserve" id="Layer_2" x="0" y="0" style="enable-background:new 0 0 1000 500" version="1.1" viewBox="0 0 1000 500">
  <style>
    .st0{fill:#444c54}
  </style>
  <path d="m318.7 264.4-.1-26.1c-.1-30 9.7-47.3 44.5-47.5l30.5-.1c34.8-.2 44.8 17.1 44.9 47.1l.1 19.4c0 3.5-1.9 5.4-5.4 5.4l-86 .4v4.3c.1 14.9 4 18.3 16.9 18.3l68.9-.3c3.5 0 5.4 1.9 5.4 5.4l.1 15.8c0 3.5-1.9 5.4-5.4 5.4l-69.6.3c-34.6.1-44.6-16.9-44.8-47.8zm91.3-23.5v-5.6c-.1-14.7-3.8-18.1-16.9-18.1l-29.2.1c-13.2.1-16.8 3.5-16.8 18.2v5.6l62.9-.2zM457.6 306.3l-.1-15.8c0-3.5 1.9-5.4 5.4-5.4l59.4-.3c11.9-.1 16.4-2.7 16.4-10.2 0-7.6-3.3-9.5-14.7-10.7l-33.3-3.5c-27-2.9-35.9-13.2-36-35.7-.1-23.5 13.7-34.4 43.3-34.5l57.9-.3c3.5 0 5.4 1.9 5.4 5.4l.1 15.8c0 3.5-1.9 5.4-5.4 5.4l-57.2.3c-10.8 0-15.8 2.5-15.7 10.7 0 7.1 3.1 9.3 13 10.3l32.6 3.5c30.3 3.5 38.7 14.5 38.8 36.3.1 24.4-13.5 33.8-45.2 33.9l-59.2.3c-3.5-.1-5.5-2-5.5-5.5zM586.1 305.8l-.7-160.8c0-3.5 1.9-5.4 5.4-5.4l17.7-.1c3.5 0 5.4 1.9 5.4 5.4l.4 93.6v-.1l45.5-45.7c1.7-2.2 3.9-3.3 6.7-3.3l21.8-.1c4.5 0 5.8 3 3.1 6.7l-52.6 54 52.8 54c2.8 3.7 1.5 6.7-3 6.7l-21.6.1c-2.8 0-5-1.1-6.7-3.2l-45.9-44.8v.1l.2 42.8c0 3.5-1.9 5.4-5.4 5.4l-17.7.1c-3.4-.1-5.4-2-5.4-5.4zM700.7 263.7l-.1-26.1c-.1-30 9.7-47.4 44.5-47.5l35.9-.2c34.8-.2 44.8 17.1 44.9 47.1l.1 26.1c.1 30.9-9.7 48-44.5 48.2l-35.9.2c-34.7.1-44.7-16.9-44.9-47.8zm80 21c13-.1 16.8-3.5 16.8-18.4l-.1-31.8c-.1-14.7-3.8-18.1-16.9-18.1l-34.6.2c-13.2.1-16.8 3.5-16.8 18.2l.1 31.8c.1 14.9 4 18.3 16.9 18.3l34.6-.2z" class="st0"/>
  <path d="M270.5 229.2c-1.7-5.1-4-13.5-15.2-9.8l-40 13.2-.2-43.6c-.1-11.7-8.9-9.1-14.4-9.1s-15-2.5-14.9 9.2l.2 43.6-40.9-11.8c-11.3-3.6-13.2 5-14.9 10.1-1.7 5.2-5.4 13.9 6 17.5l40.9 11.8-25.5 34.2c-6.9 9.5.8 14.6 5.2 17.7 4.5 3.2 11.7 8.7 18.6-.8l25.6-34.1 25.6 33.6c7 9.4 13.8 3.7 18.3.5 4.4-3.2 12.4-8.2 5.4-17.6L224.5 260l39.9-13.1c11.3-3.7 7.8-12.6 6.1-17.7m17 22.9c.2 47.4-38.4 86-86.4 86.2-47.9.2-86.9-38-87.2-85.4-.2-47.4 38.4-85.9 86.3-86.2 48.1-.2 87.1 38 87.3 85.4" style="fill:#a2be3e"/>
</svg>
